<svg id="Camada_1" data-name="Camada 1" xmlns="http://www.w3.org/2000/svg" xmlns:xlink="http://www.w3.org/1999/xlink" viewBox="0 0 841.89 221.28"><defs><style>.cls-1{fill:none;}.cls-2{fill:#211915;}.cls-3{fill:#070308;}.cls-4{clip-path:url(#clip-path);}</style><clipPath id="clip-path"><rect class="cls-1" x="77.32" y="28.24" width="111.64" height="155.94"/></clipPath></defs><title>PSI FACIL 1 </title><path class="cls-2" d="M270.33,70.35V89.5c0,23.56-11.36,36.4-34.51,36.4H224.88v55.34H201.73V33.95h34.09C259,33.95,270.33,46.78,270.33,70.35ZM224.88,55v49.87h10.94c7.36,0,11.36-3.37,11.36-13.89V68.88c0-10.52-4-13.89-11.36-13.89Z"/><path class="cls-2" d="M314.3,32.27c22.51,0,34.09,13.47,34.09,37v4.63H326.5v-6.1c0-10.52-4.21-14.52-11.57-14.52s-11.57,4-11.57,14.52c0,30.3,45.24,36,45.24,78.06,0,23.57-11.78,37-34.51,37s-34.51-13.47-34.51-37v-9h21.88v10.52c0,10.52,4.63,14.31,12,14.31s12-3.79,12-14.31c0-30.3-45.24-36-45.24-78.06C280.22,45.73,291.79,32.27,314.3,32.27Z"/><path class="cls-2" d="M362.91,33.95h23.14V181.23H362.91Z"/><path class="cls-2" d="M485.36,105.7v8.84H447.28v66.7H437.6V33.95h56v8.84H447.28V105.7Z"/><path class="cls-2" d="M519.66,148.62l-7.36,32.61h-8.84L535.65,33.74h14.1l32.82,147.49h-9.68l-7.36-32.61Zm1.47-8.42h42.92L542.38,44.89ZM558.16,6,540.49,26h-7.36L548.07,6Z"/><path class="cls-2" d="M660.21,69.93v12.2H651V69.3c0-15.78-6.1-27.77-22.3-27.77s-22.3,12-22.3,27.77v76.59c0,15.78,6.1,27.56,22.3,27.56S651,161.66,651,145.88V128.42h9.26v16.83c0,21.25-9.26,37.24-31.77,37.24s-31.77-16-31.77-37.24V69.93c0-21.25,9.26-37.24,31.77-37.24S660.21,48.68,660.21,69.93Z"/><path class="cls-2" d="M685.67,33.95V181.23H676V33.95Z"/><path class="cls-2" d="M702.5,181.23V33.95h9.68V172.39h46.29v8.84Z"/><path class="cls-3" d="M181.87,97.22h0l-40.57,42.09a2.3,2.3,0,0,1-1.77.76,2,2,0,0,1-1.77-.76L118,118l-.51-.51a2.45,2.45,0,0,1,0-3.55l3.55-3.55a2.45,2.45,0,0,1,3.55,0l.25.25,13.94,15a1.23,1.23,0,0,0,1.77,0l34-35.24h.25a2.45,2.45,0,0,1,3.55,0l3.55,3.55A2.16,2.16,0,0,1,181.87,97.22Z"/><g class="cls-4"><path class="cls-3" d="M94.9,70.29l34.87-35.64a2.91,2.91,0,0,1,2.08-.88h66.77a14.48,14.48,0,0,1,14.3,14.62V166.54a14.48,14.48,0,0,1-14.3,14.62H108.34A14.48,14.48,0,0,1,94,166.54V72.42A3,3,0,0,1,94.9,70.29Zm34-26.25L104.09,69.41h16.4a8.27,8.27,0,0,0,6-2.52,8.64,8.64,0,0,0,2.46-6.08Zm-29,122.49a8.52,8.52,0,0,0,8.42,8.6h90.28a8.52,8.52,0,0,0,8.42-8.6V48.39a8.52,8.52,0,0,0-8.42-8.6H134.8v21a14.68,14.68,0,0,1-4.19,10.34,14.06,14.06,0,0,1-10.11,4.28H99.93v91.11Z"/></g></svg>